<?xml version="1.0" encoding="utf-8"?>
<!-- Generator: Adobe Illustrator 27.6.1, SVG Export Plug-In . SVG Version: 6.00 Build 0)  -->
<svg version="1.1" id="Layer_1" xmlns="http://www.w3.org/2000/svg" xmlns:xlink="http://www.w3.org/1999/xlink" x="0px" y="0px"
	 viewBox="0 0 80 79.3" style="enable-background:new 0 0 80 79.3;" xml:space="preserve">
<style type="text/css">
	.st0{fill:#FFFFFF;}
	.st1{fill:#0F3C25;}
</style>
<rect y="0" class="st0" width="80" height="79.3"/>
<path class="st1" d="M40.8,33.2c1.1,0,1.6,0.9,1.7,1.1v0.1c0.1,0.1,0.1,0.3,0.3,0.3c0.1,0,0.2-0.1,0.3-0.3c0.1-0.3,0-1.1-0.1-1.3
	s-0.2-0.3-0.3-0.3s-0.2,0.1-0.3,0.1C42.3,33,42.2,33,42.1,33c-0.3-0.2-0.6-0.3-1.2-0.3c-2,0-3.6,1.6-3.6,3.6c0,1.8,1.4,3.2,3.2,3.2
	c1.6,0,2.7-0.7,2.7-1.3c0-0.1-0.1-0.2-0.2-0.2h-0.1c-0.1,0-0.2,0.1-0.3,0.2c-0.3,0.2-0.9,0.6-1.8,0.6c-1.6,0-2.1-1.4-2.1-2.7
	C38.6,34.7,39.1,33.2,40.8,33.2 M38.6,48.6c-0.3,0-0.8,0-1.1-0.1l0.1-3.2c0-1.3,0.2-1.4,2-1.4c2,0,2.3,0.8,2.4,1.8
	c0.1,0.9-0.1,1.6-0.6,2.1C40.8,48.2,39.8,48.6,38.6,48.6 M43.3,56.3c0,0,0.6,0.7,1.6,0.8c0,0,0.3,0.1,0.6,0.1c0.4,0,0.9-0.1,1.1-0.2
	c0.3-0.2,0.6-0.3,0.6-0.6s-0.3-0.6-0.7-0.8c-0.2-0.1-0.6-0.3-0.8-0.6c-2.8-2.8-4-4.3-4-5.1c0-0.2,0.3-0.4,0.3-0.4
	c1.8-0.8,2.8-2.3,2.7-4c-0.1-1.9-1.6-3.1-3.8-3.1h-6.2c-0.3,0-0.6,0.1-0.8,0.2c-0.1,0.1-0.1,0.2-0.1,0.3c0,0.3,0.1,0.4,0.2,0.7
	c0.2,0.3,0.6,0.9,0.3,2.7l0.1,8.1c0,0.9-0.1,1.1-0.2,1.8l0.1,0.2c-0.1,0.2,0,0.3,0.1,0.4c0.1,0.1,0.2,0.1,0.4,0.2h2.6
	c0.3,0,0.6-0.1,0.7-0.1c0.1-0.1-0.1-0.3-0.3-0.6c-0.1-0.1-0.3-0.3-0.3-0.6c-0.1-0.3-0.1-0.4-0.1-0.6c-0.1-1.2,0.1-4.6,0.1-4.7
	c0.1-0.2,0.4-0.3,0.6-0.3h0.1c0.6,0.1,0.9,0.1,1.2,0.6c0.3,0.3,0.8,1.1,1.3,1.8C41.6,54.1,42.7,55.9,43.3,56.3 M24.6,67.2
	C24.6,67.2,24.4,67.2,24.6,67.2c-0.1-0.1-0.2,0-0.3,0.1c-0.2,0.1-0.7,0.4-1.1,0.4c-0.1,0-0.2-0.1-0.3-0.1v-0.1
	c0.1-0.3,0.7-1.1,1.2-1.8c0.3-0.3,0.6-0.8,0.8-1v-0.1H24c-0.6,0.9-1.1,1.6-1.4,2c-0.4,0.6-0.7,0.9-0.7,1s0,0.2,0.1,0.3
	c0.1,0.1,0.3,0.2,0.6,0.2C23.2,68.2,24.6,67.5,24.6,67.2 M34.7,66.2c0.3-0.3,0.9-1.1,1.4-1.1c0.1,0,0.2,0,0.2,0.1
	C36.2,65.7,35.2,66.1,34.7,66.2 M36.9,64.7c-1.2,0-3.4,1.7-3.8,2.8c-0.1,0.2-0.1,0.3,0.1,0.6c0.1,0.1,0.3,0.2,0.8,0.2
	c1.1,0,2.6-0.9,2.6-1.1v-0.1h-0.1c0,0-0.1,0-0.1,0.1l-0.1,0.1c-0.1,0-0.1,0.1-0.2,0.1c-0.3,0.2-0.8,0.4-1.3,0.4
	c-0.2,0-0.3-0.1-0.6-0.1c-0.1-0.1-0.1-0.2,0-0.4c0.1-0.1,0.2-0.4,0.3-0.6c0.3-0.1,2.6-0.4,2.8-1.3v-0.3C37.2,64.8,37,64.7,36.9,64.7
	 M29.1,67.5c-0.1,0-0.1,0-0.2,0.1s-0.4,0.2-0.7,0.2c-0.1,0-0.1,0-0.2-0.1v-0.1c0.1-0.1,0.4-0.6,0.8-1.1c0.3-0.6,0.9-1.1,0.9-1.3
	c0-0.1,0-0.2-0.1-0.3c-0.1-0.1-0.3-0.2-0.6-0.2c-0.9,0-2,1-2.6,1.6l1.1-1.4h-0.9l-0.2,0.3c-0.7,0.9-1.3,1.9-2,2.9l-0.1,0.1h0.8
	c0.7-1.1,2.3-3,3.3-3c0.1,0,0.2,0,0.2,0.1v0.1c-0.1,0.2-0.4,0.7-0.9,1.1c-0.3,0.4-0.8,0.9-0.9,1.1c0,0.1,0,0.2,0.1,0.3
	C27,68,27.2,68,27.5,68C28.1,68.1,29.1,67.6,29.1,67.5C29.2,67.6,29.2,67.5,29.1,67.5C29.2,67.5,29.1,67.5,29.1,67.5 M45.4,36.2
	l0.8-2l0.8,2H45.4z M47.8,38.8V39c0,0.1,0.1,0.1,0.1,0.1h1.4c0.1,0,0.2,0,0.2-0.1c0.1-0.1,0-0.1,0-0.2v-0.1
	c-0.1-0.1-0.2-0.3-0.3-0.6l-0.1-0.3c-0.6-1.3-1.3-3.2-2.2-5.2c-0.1-0.2-0.2-0.3-0.3-0.3s-0.3,0.1-0.4,0.4c-0.1,0.1-0.1,0.3-0.3,0.7
	c-0.4,1.1-1.2,3-2,4.8c-0.1,0.2-0.1,0.3-0.2,0.4s-0.1,0.1-0.1,0.2c-0.1,0.1-0.1,0.2,0,0.2c0,0.1,0.1,0.1,0.2,0.1h0.9
	c0.1,0,0.2,0,0.3-0.1s0-0.1-0.1-0.3l-0.1-0.1v-0.3c0-0.1,0.2-0.6,0.3-1c0.1-0.1,0.1-0.3,0.1-0.4h2c0.1,0.2,0.1,0.4,0.2,0.6
	c0.2,0.4,0.3,0.7,0.3,0.9C47.8,38.6,47.8,38.7,47.8,38.8C47.8,38.7,47.8,38.8,47.8,38.8 M6.7,65h8.1v1.1H6.7V65z M44.1,63
	c-0.2,0-0.7,0.3-1,0.4c-0.6,0.4-1.3,0.9-2,1.3c-1.1,0.6-1.2,0.6-1.1,0.6c0.1,0.1,0.7,0,1.2-0.3c0.4-0.3,1.1-0.7,1.4-1
	c0.1-0.1-2.8,4.2-3.1,4.9c-0.6,1-0.3,1,0.1,0.9c1.1-0.2,1.1-0.3,1.6-1.1c0.8-1.6,1.6-3.1,2.8-5.2C44.3,63.1,44.3,63,44.1,63
	 M28.2,33.2c1.1,0,1.6,0.9,1.7,1.1v0.1c0.1,0.1,0.1,0.3,0.3,0.3s0.3-0.1,0.3-0.3c0.1-0.3,0-1.1-0.1-1.3s-0.2-0.3-0.3-0.3
	s-0.2,0.1-0.3,0.1C29.7,33,29.6,33,29.5,33c-0.3-0.2-0.6-0.3-1.1-0.3c-2,0-3.6,1.6-3.6,3.6c0,1.8,1.4,3.2,3.2,3.2
	c1.6,0,2.7-0.7,2.7-1.3c0-0.1-0.1-0.2-0.2-0.2h-0.1c-0.1,0-0.2,0.1-0.3,0.2c-0.3,0.2-0.9,0.6-1.7,0.6c-1.6,0-2.1-1.4-2.1-2.7
	C26.1,34.7,26.7,33.2,28.2,33.2z M25.6,63.3c0.3,0,0.6-0.2,0.7-0.6v-0.3c-0.1-0.1-0.2-0.1-0.3-0.1c-0.3,0-0.6,0.2-0.7,0.6v0.3
	C25.2,63.2,25.3,63.3,25.6,63.3z M48,64.9c-0.6-0.8-0.9-1.3-0.9-2s0.6-1.2,1.3-1.2c0.6,0,1.1,0.6,1.1,1.1c0,0.8-0.3,1.3-1,1.8
	c-0.1,0.1-0.3,0.2-0.3,0.3c0.1,0.1,0.4-0.1,0.7-0.1c0.6-0.3,1.7-1,1.7-1.9c-0.1-0.9-0.7-1.6-1.8-1.6c-1.4,0-2.8,1.2-2.6,2.6
	c0.1,0.6,0.3,0.9,0.8,1.7c0.3,0.6,0.7,1.1,0.9,1.6c0.3,1.1-0.2,2.3-1.6,2.2c-0.7-0.1-1.2-0.6-1.1-1.4c0-0.9,0.6-1.6,1.1-2.1
	c0.1-0.1,0.4-0.2,0.3-0.3c-0.1-0.1-0.4,0.1-0.6,0.1c-1.2,0.6-2.3,1.3-2.3,2.6c0,1,0.9,1.6,2,1.7c1.8,0.1,3.3-1.3,3-2.9
	C48.8,66,48.4,65.5,48,64.9"/>
<path class="st1" d="M1.1,1h78v77.3h-78C1.1,78.3,1.1,1,1.1,1z M0,79.3h80V0H0V79.3z"/>
<path class="st1" d="M9.9,50.3c0.1-0.3,0.8-0.6,2-0.6c0.6,0,1.1,0.1,1.1,0.1c0.9,0.1,2.2,1,2.2,3s-1.1,2.8-3.6,2.8
	c-1.6,0-1.8-0.3-1.8-1.4C10,53.1,9.8,50.6,9.9,50.3 M10,45.2c0-1.3,0.2-1.4,2-1.4c2,0,2.3,0.8,2.3,1.7c0.1,0.9-0.1,1.4-0.6,1.9
	c-0.6,0.6-1.6,0.9-3,0.9H9.9C9.9,48.3,10,45.2,10,45.2z M7.1,46.2L7,54.3c0,0.9-0.1,1.1-0.2,1.8v0.2c-0.1,0.2-0.1,0.3,0.1,0.4
	c0.1,0.1,0.2,0.2,0.4,0.2h6.2c3.1,0,4.7-1.4,4.7-4.2c0-2-0.7-3.2-2.3-4c1-0.7,1.6-1.8,1.4-3.2c-0.1-1.9-1.6-3.1-3.8-3.1h-6
	c-0.3-0.1-0.9,0.1-1,0.6c0,0.3,0.1,0.4,0.2,0.7C6.9,44,7.2,44.6,7.1,46.2 M33.7,34.2l0.8,2h-1.6L33.7,34.2z M32.4,37.3
	c0.1-0.1,0.1-0.3,0.1-0.3h2c0.1,0.2,0.1,0.4,0.2,0.6c0.2,0.4,0.3,0.7,0.3,0.9c0,0.1,0,0.2-0.1,0.3v0.3c0,0.1,0.1,0.1,0.1,0.1h1.6
	c0.1,0,0.2,0,0.2-0.1c0.1-0.1,0-0.1,0-0.2c0,0,0-0.1-0.1-0.1c-0.1-0.1-0.2-0.3-0.2-0.4l-0.2-0.6c-0.6-1.3-1.3-3.1-2.1-5.1
	c-0.1-0.2-0.2-0.3-0.3-0.3s-0.3,0.1-0.4,0.4c-0.1,0.1-0.1,0.3-0.2,0.6c-0.4,1.1-1.2,3-2,4.9c-0.1,0.3-0.1,0.4-0.2,0.6
	C31,39,31,39,31,39.1c-0.1,0.1-0.1,0.2,0,0.2c0,0.1,0.1,0.1,0.2,0.1H32c0.1,0,0.2,0,0.3-0.1s0-0.1-0.1-0.3l-0.1-0.3v-0.3
	C32,38.2,32.2,37.8,32.4,37.3 M33.8,65.3c0.1-0.1,0-0.3-0.1-0.3c-0.1-0.1-0.2-0.2-0.4-0.2c-1.3,0-3.3,1.6-3.7,2.6
	c-0.1,0.2,0,0.6,0.1,0.7c0.1,0.2,0.3,0.3,0.8,0.3c0.8,0,2.2-0.8,2.2-0.9v-0.1h-0.1c0,0-0.1,0-0.2,0.1c-0.3,0.1-0.8,0.6-1.1,0.6
	c-0.2,0-0.4-0.1-0.6-0.1c-0.1-0.1-0.1-0.2-0.1-0.4c0.1-0.6,1.2-2.1,1.9-2.1c0.2,0,0.3,0.1,0.3,0.2l-0.2,0.2v0.2
	c0.1,0.1,0.2,0.1,0.3,0.1C33.4,65.8,33.7,65.6,33.8,65.3 M40,26.3c-2.8-2.1-8.7-9.3-0.9-19v-2h-1.6C36.9,6,33,10.7,32.9,16.1
	s3.2,10.7,7.1,12.8c3.9-2.1,7.1-7.2,7.1-12.8C47,10.7,43.1,6,42.4,5.3h-1.6v2C48.8,16.9,42.9,24.1,40,26.3z"/>
<path class="st1" d="M35.4,28.8c-2.4-2.3-5.2-6.8-5.2-11.6c0-3.3,0.7-7.3,3.3-10.8c-1.6,0.6-9.3,3.3-9.3,11.2
	C24.3,25.1,33.9,28.2,35.4,28.8 M40,22.7c2.6-2.3,3.4-8.8,0-12.2C38,12.6,36.2,18.5,40,22.7 M44.6,28.8c1.7-0.6,11.2-3.6,11.2-11.2
	S48,6.9,46.5,6.4c2.7,3.4,3.3,7.6,3.3,10.8C49.9,22,47,26.3,44.6,28.8 M18.3,68.1c-0.7,0-1.1-0.1-1.3-0.4s-0.2-0.8-0.1-1.6V66h-0.2
	l-1.1,1.9l0.2,0.1c0.6,0.1,1.3,0.3,2,0.3c1.2,0,2.9-0.9,3.2-1.9c0.2-0.8-0.3-1.2-0.9-1.6c-0.4-0.3-0.9-0.7-0.8-1.3
	c0.1-0.6,0.8-1,1.4-1c0.4,0,0.8,0.1,0.9,0.3c0.2,0.2,0.2,0.6,0.1,1.1v0.2h0.4c0.2-0.4,0.4-1,0.9-1.4c-0.3-0.2-1-0.3-1.4-0.3
	c-1.3,0-3,0.6-3.2,1.8c-0.1,0.6,0.3,1,0.8,1.3c0.6,0.3,1.1,0.8,0.9,1.6C19.9,67.7,19,68,18.3,68.1 M63.4,63.9c0-1-0.6-1.6-1.8-1.6
	c-0.9,0-1.8,0.3-2.3,0.9c-0.4,0.4-0.9,1.1-0.9,1.6c0,0.3,0.2,0.9,0.9,0.9c0.2,0,0.4,0,0.6-0.1c0.1,0,0.1-0.1,0.1-0.1s-0.1-0.1-0.1,0
	c-0.6,0-1-0.2-1-0.9c0-0.4,0.3-0.9,0.6-1.2c0.4-0.4,1.1-0.7,1.7-0.7s1,0.3,0.9,1c-0.1,1.1-1.4,2.6-3,3.6c-0.9,0.6-1.8,1.1-2.1,1.3
	c-0.1,0.1-0.3,0.2-0.3,0.3s0,0.1,0.1,0.1s0.3-0.2,0.4-0.3s0.6-0.2,0.8-0.2c0.4,0,0.8,0.1,1.1,0.2c0.4,0.2,1.1,0.3,1.6,0.3
	c1.1,0,1.7-0.9,2.2-1.8c0-0.1,0.1-0.1-0.1-0.2c-0.1,0-0.1,0.1-0.1,0.1c-0.6,0.8-1,1-1.6,1c-0.4,0-1.1-0.3-1.8-0.3
	c-0.4,0-0.6,0-0.9,0.1c0.8-0.3,1.8-0.8,2.8-1.3C62.4,65.8,63.3,64.9,63.4,63.9 M53,68c-0.7,0-2.1,0-2.8,0.1c0.6-0.6,1.4-1.3,2.4-2.1
	c0.9-0.8,2.2-1.8,3-2.3l0.1,0.1C55.1,64.3,53.8,66.8,53,68 M55.6,68.1C55.3,68,54.8,68,54.5,68c0.6-1.1,1.4-3,2.6-5.1
	c0.1-0.2,0.1-0.3-0.1-0.3s-0.6,0.1-1,0.4c-1.1,0.9-2.1,1.6-3.6,2.7c-1.1,0.9-2.3,1.9-2.7,2.3c-0.1,0.1-0.3,0.3-0.3,0.4
	s0.2,0.1,0.3,0.1c0.3-0.1,0.6-0.1,1.1-0.1c0.6-0.1,1.2-0.1,2-0.1c-0.3,0.9-0.9,1.6-1.2,2.4c-0.4,1-0.2,1,0.3,0.9
	c0.6-0.1,0.9-0.2,1.1-0.8l1.3-2.7c0.3,0,0.7,0,1.1,0.1c0.3,0.1,0.4,0.1,0.4,0C56.1,68.2,55.9,68.1,55.6,68.1 M65.7,65h8.1v1.1h-8.1
	V65z M52.8,38.7c-1.1,0-1.9-1.1-1.9-2.8s0.8-2.8,1.9-2.8s1.9,1.1,1.9,2.8C54.7,37.5,53.9,38.7,52.8,38.7 M52.8,32.5
	c-1.8,0-3.2,1.4-3.2,3.6c0,2,1.3,3.6,3.2,3.6c1.8,0,3.2-1.4,3.2-3.6S54.7,32.5,52.8,32.5 M56.2,45.6c0.1,0.9-0.1,1.6-0.6,2.1
	c-0.6,0.6-1.4,0.9-2.8,0.9c-0.3,0-0.8,0-1.1-0.1v-3.2c0-1.3,0.2-1.4,2-1.4C55.9,43.8,56.2,44.6,56.2,45.6 M55.4,42.3h-6.1
	c-0.3,0-0.6,0.1-0.8,0.2c-0.1,0.1-0.1,0.2-0.1,0.3c0,0.3,0.1,0.4,0.2,0.7c0.2,0.3,0.6,0.9,0.3,2.7l-0.1,8.1c0,0.9-0.1,1.1-0.2,1.8
	c0,0.1-0.1,0.1-0.1,0.2c-0.1,0.2,0,0.3,0.1,0.4c0.1,0.1,0.2,0.2,0.4,0.2h2.6c0.3,0,0.6-0.1,0.7-0.1c0.1-0.1-0.1-0.3-0.3-0.6
	c-0.1-0.1-0.3-0.3-0.3-0.6c-0.1-0.3-0.1-0.6-0.1-0.6c-0.1-1.2,0.1-4.6,0.1-4.7c0.1-0.2,0.4-0.3,0.6-0.3c0.6,0.1,0.9,0.1,1.3,0.6
	c0.3,0.3,0.8,1.1,1.3,1.9c1,1.6,2.2,3.2,2.8,3.8c0,0,0.6,0.7,1.6,0.8c0,0,0.3,0.1,0.6,0.1c0.4,0,0.9-0.1,1.1-0.2
	c0.3-0.2,0.6-0.3,0.6-0.6s-0.3-0.6-0.7-0.8c-0.2-0.1-0.6-0.3-0.8-0.6c-2.8-2.8-4-4.3-4-5.1c0-0.2,0.3-0.4,0.3-0.4
	c1.8-0.8,2.8-2.3,2.7-4C59.2,43.6,57.7,42.3,55.4,42.3C55.5,42.3,55.5,42.3,55.4,42.3 M25.4,45.9l1.8,4.7h-3.6
	C23.6,50.6,25.4,45.9,25.4,45.9z M19.8,57h2c0.3,0,0.6-0.1,0.6-0.2c0.1-0.1-0.1-0.3-0.3-0.6c0-0.1-0.1-0.1-0.1-0.1
	c-0.1-0.1-0.1-0.3,0-0.8c0.1-0.3,0.6-1.3,0.9-2.3c0.1-0.3,0.3-0.8,0.3-1h4.7c0.2,0.6,0.4,1,0.6,1.3c0.4,1.1,0.7,1.6,0.7,1.8
	c0,0.3-0.1,0.6-0.1,0.8c0,0.1-0.1,0.1-0.1,0.2c-0.1,0.2-0.1,0.4,0,0.6c0.1,0.1,0.2,0.1,0.3,0.1h3.1c0.3,0,0.4-0.1,0.6-0.1
	c0.1-0.1,0-0.3-0.1-0.4v-0.2c0,0-0.1-0.1-0.1-0.2c-0.1-0.3-0.4-0.8-0.6-1.1l-0.6-1.2c-1.2-2.9-2.8-6.9-4.7-11.2
	c-0.2-0.4-0.4-0.7-0.8-0.7s-0.7,0.3-0.9,0.9c-0.1,0.3-0.3,0.9-0.6,1.4c-1.1,2.4-2.8,6.7-4.3,10.8c-0.2,0.6-0.3,0.8-0.6,0.9
	c-0.1,0.1-0.1,0.2-0.2,0.4s-0.1,0.3,0,0.6C19.4,56.9,19.6,57,19.8,57 M61,43.9c0.2,0.1,0.3,0.2,0.4,0.3l0.1,0.1
	c1.6,2.3,2.7,4,4.4,6.3v4.2c0,0.7-0.2,0.9-0.3,1.1c-0.1,0.1-0.2,0.2-0.2,0.4c0,0.1,0,0.2,0.1,0.3s0.4,0.2,1.1,0.2h2.6
	c0.6,0,0.8-0.1,0.9-0.3c0.1-0.3-0.1-0.6-0.3-0.7c-0.2-0.2-0.6-0.4-0.6-1v-4.6c0.4-0.7,1-1.3,1.6-2.1c0.9-1.2,1.8-2.4,2.6-3.9
	c0.3-0.4,0.6-0.7,0.8-0.9c0.2-0.1,0.3-0.3,0.3-0.6s-0.1-0.6-0.6-0.6h-2.2c-0.6,0-0.8,0.3-0.8,0.6c0,0.2,0.1,0.4,0.3,0.6
	c0.1,0.1,0.3,0.3,0.1,0.6c-0.1,0.6-1.4,2.3-2.3,3.6c-0.6,0.7-0.8,1-0.9,1.1l-0.3-0.3c-1.6-2.3-2.9-4-3-4.6c0-0.1,0-0.2,0.1-0.3
	s0.3-0.3,0.3-0.6c0-0.2,0-0.3-0.1-0.6c-0.1-0.1-0.2-0.1-0.3-0.1h-3.7c-0.3,0-0.8,0.2-0.8,0.6C60.1,43.5,60.6,43.7,61,43.9"/>
</svg>
